<?xml version="1.0" encoding="utf-8"?>
<!-- Generator: Adobe Illustrator 22.1.0, SVG Export Plug-In . SVG Version: 6.00 Build 0)  -->
<svg version="1.1" id="Layer_1" xmlns="http://www.w3.org/2000/svg" xmlns:xlink="http://www.w3.org/1999/xlink" x="0px" y="0px"
	 viewBox="0 0 160 160" style="enable-background:new 0 0 160 160;" xml:space="preserve">
<style type="text/css">
	.st0{fill:url(#SVGID_1_);}
	.st1{fill:none;stroke:#FFFFFF;stroke-width:0.1815;stroke-miterlimit:10;}
	.st2{opacity:0.49;fill:none;stroke:#FFFFFF;stroke-width:0.1815;stroke-miterlimit:10;}
	.st3{opacity:0.48;fill:none;stroke:#FFFFFF;stroke-width:0.1815;stroke-miterlimit:10;}
	.st4{opacity:0.56;fill:none;stroke:#FFFFFF;stroke-width:0.1815;stroke-miterlimit:10;}
	.st5{opacity:0.67;fill:none;stroke:#FFFFFF;stroke-width:0.1815;stroke-miterlimit:10;}
	.st6{opacity:0.53;fill:none;stroke:#FFFFFF;stroke-width:0.1815;stroke-miterlimit:10;}
	.st7{fill:none;stroke:#FFFFFF;stroke-width:0.1854;stroke-miterlimit:10;}
	.st8{opacity:0.44;fill:none;stroke:#FFFFFF;stroke-width:0.1815;stroke-miterlimit:10;}
	.st9{opacity:0.31;fill:none;stroke:#FFFFFF;stroke-width:0.1815;stroke-miterlimit:10;}
	.st10{opacity:0.34;fill:none;stroke:#FFFFFF;stroke-width:0.1815;stroke-miterlimit:10;}
	.st11{opacity:0.51;fill:none;stroke:#FFFFFF;stroke-width:0.1815;stroke-miterlimit:10;}
</style>
<g>
	<linearGradient id="SVGID_1_" gradientUnits="userSpaceOnUse" x1="47" y1="74.9521" x2="100" y2="74.9521">
		<stop  offset="9.769347e-08" style="stop-color:#FFFFB4"/>
		<stop  offset="7.115963e-03" style="stop-color:#F0F6B0"/>
		<stop  offset="3.678966e-02" style="stop-color:#B7D3A0"/>
		<stop  offset="6.650954e-02" style="stop-color:#85B692"/>
		<stop  offset="9.561520e-02" style="stop-color:#5D9D86"/>
		<stop  offset="0.124" style="stop-color:#3E8A7D"/>
		<stop  offset="0.1514" style="stop-color:#277D77"/>
		<stop  offset="0.1775" style="stop-color:#1A7573"/>
		<stop  offset="0.2008" style="stop-color:#157272"/>
		<stop  offset="0.2519" style="stop-color:#146A6D"/>
		<stop  offset="0.3313" style="stop-color:#125461"/>
		<stop  offset="0.4289" style="stop-color:#0F304D"/>
		<stop  offset="0.5382" style="stop-color:#0B0031"/>
	</linearGradient>
	<polygon class="st0" points="47,47 50.6,47 63,47 63,71.7 84,71.7 84,47 100,47 100,102.9 84,102.9 84,79.7 63,79.7 63,102.9 
		47,102.9 	"/>
	<polyline class="st1" points="50.6,47 50.6,71 50.6,71.7 55.7,80.4 55.7,85.5 60.1,89.8 60.1,98.5 60.1,102.9 	"/>
	<polyline class="st2" points="48.5,102.9 48.5,92 52.1,86.9 52.1,81.1 47,72.4 	"/>
	<polyline class="st3" points="47.7,102.9 47.7,92 51.4,86.9 51.4,81.1 47,73.6 	"/>
	<polyline class="st4" points="54.3,97.1 54.3,89.8 54.3,80.4 49.2,72.4 	"/>
	<polyline class="st1" points="50.6,81.1 50.6,86.9 47.7,90.6 47.7,75.3 	"/>
	<polyline class="st1" points="49.9,81.1 49.9,86.9 48.5,88.4 48.5,77.5 	"/>
	<polyline class="st5" points="61.4,47 61.5,71 60.8,71 60.8,47 	"/>
	<polyline class="st1" points="55,102.9 55,99.3 55,89.8 55,85.5 55,80.4 49.9,71.7 49.8,47 	"/>
	<polyline class="st1" points="56.4,47 53.5,52.8 53.5,71.7 58.6,78.9 75.3,78.9 85.5,78.9 85.5,81.1 86.9,81.1 86.9,68.8 90.6,63 
		90.6,56.4 87.7,56.4 87.4,47 	"/>
	<polyline class="st1" points="58.3,47 55,53.5 55,71.7 59.3,77.5 85.5,77.5 85.5,68.8 84.8,68.8 84.8,73.1 60.8,73.1 57.9,70.2 
		57.9,53.5 60.4,47 	"/>
	<polyline class="st1" points="47.7,47 47.7,68.8 47.7,72.4 52.8,80.4 52.8,81.1 52.8,86.9 49.2,92 49.2,102.9 	"/>
	<polyline class="st1" points="49.9,102.9 49.8,102.2 49.9,92 53.5,86.9 53.5,102.2 50.6,102.2 50.6,92 52.8,89.1 52.8,101.5 
		51.4,101.5 51.4,92 	"/>
	<polyline class="st1" points="91.3,47 91.3,63 87.7,68.8 87.7,85.5 87.7,102.2 	"/>
	<polyline class="st6" points="92.7,47 92.7,63 89.1,68.8 89.1,90.6 89.1,102.9 	"/>
	<polyline class="st4" points="86.2,47 86.2,68.1 89.8,63 89.8,57.9 86.9,57.9 86.9,65.9 89.1,63 89.1,58.6 87.7,58.6 87.7,63.7 
		88.4,63 88.4,59.3 	"/>
	<polyline class="st1" points="93.5,79.7 93.5,68.8 97.1,63 97.1,50.6 96.4,50.6 96.4,63 92.7,68.8 92.7,76.8 92.7,102.9 
		94.2,102.9 94.2,97.1 96.4,97.1 96.4,86.9 97.1,86.9 97.1,102.9 94.9,102.9 94.9,98.5 96.4,98.5 96.4,101.5 95.6,101.5 95.6,99.3 	
		"/>
	<polyline class="st1" points="55,47 52.1,52.1 51.4,52.1 51.4,47 	"/>
	<polyline class="st7" points="55.7,85.5 59.3,89.3 59.5,102.9 55.7,102.9 55.7,87 58.6,90 58.6,102.1 56.4,102.1 56.4,89.3 
		57.9,90.8 57.9,97.6 	"/>
	<polyline class="st8" points="62.4,102.9 62.2,89.1 58.6,85.5 58.6,80.4 62.2,80.4 62.2,87.7 59.3,84.8 59.3,81.1 61.5,81.1 
		61.5,84.8 60.1,84.8 60.1,81.8 60.8,81.8 60.8,84 60.8,84 	"/>
	<polyline class="st1" points="56.4,54.3 56.4,71 60.1,75.3 84,75.3 84,76.8 60.8,76.8 60.8,76 78.9,76 83.3,76 	"/>
	<line class="st9" x1="48.6" y1="47" x2="49.2" y2="72.6"/>
	<polyline class="st10" points="52.2,71.8 52.1,53.5 52.8,53.5 52.8,71.7 57.9,79.7 57.9,85.5 61.5,89.1 61.5,102.9 60.8,102.9 
		60.8,97.8 60.8,89.1 57.2,85.5 57.2,80.4 52.1,71.7 	"/>
	<polyline class="st1" points="85.5,102.9 85.5,82.6 86.9,82.6 86.9,102.9 88,102.9 	"/>
	<polyline class="st11" points="90.6,102.9 90.6,68.8 94.2,63 94.2,49.2 98.5,49.2 98.5,63 94.9,69.5 94.9,82.6 97.1,82.6 
		97.1,70.2 95.6,70.2 95.6,81.1 96.4,81.1 96.4,71.7 	"/>
	<polyline class="st1" points="88.3,47 88.4,55.7 90.6,55.7 90.6,47.7 89.1,47.7 89.1,55 89.8,55 89.8,48.5 	"/>
	<polyline class="st1" points="84.8,47 84.8,67.3 85.5,67.3 85.5,64.4 	"/>
	<polyline class="st1" points="94.2,47 100,47 100,50.1 100,63 98.5,68.8 98.5,84 94.2,84 94.2,94.9 95.6,94.9 95.6,85.5 98.5,85.5 
		98.7,102.9 	"/>
	<polyline class="st1" points="60.1,49.9 58.6,53.5 58.6,69.5 60.1,69.5 60.1,50.6 60.1,49.9 	"/>
</g>
</svg>
